<?xml version="1.0" encoding="UTF-8"?>
<!-- Generated by Pixelmator Pro 3.6.12 -->
<svg width="3140" height="859" viewBox="0 0 3140 859" xmlns="http://www.w3.org/2000/svg">
    <g id="Group-copy">
        <g id="W-GRAD">
            <linearGradient id="linearGradient1" x1="313.471968" y1="644.647259" x2="123.53125" y2="75.05787" gradientUnits="userSpaceOnUse">
                <stop offset="0" stop-color="#646464" stop-opacity="1"/>
                <stop offset="1" stop-color="#000000" stop-opacity="1"/>
            </linearGradient>
            <path id="Rectangle" fill="url(#linearGradient1)" fill-rule="evenodd" stroke="none" d="M 249.685913 688.705078 L 408.442383 688.705078 L 187.317322 31 L 28.560913 31 Z"/>
            <linearGradient id="linearGradient2" x1="338.98638" y1="644.647259" x2="517.587354" y2="75.05787" gradientUnits="userSpaceOnUse">
                <stop offset="0" stop-color="#000000" stop-opacity="1"/>
                <stop offset="1" stop-color="#000000" stop-opacity="1"/>
            </linearGradient>
            <path id="Rectangle-copy-2" fill="url(#linearGradient2)" fill-rule="evenodd" stroke="none" d="M 249.685913 688.705078 L 408.442383 688.705078 L 606.887817 31 L 448.131348 31 Z"/>
            <linearGradient id="linearGradient3" x1="543.101768" y1="75.05787" x2="733.042486" y2="644.647259" gradientUnits="userSpaceOnUse">
                <stop offset="0" stop-color="#000000" stop-opacity="1"/>
                <stop offset="1" stop-color="#646464" stop-opacity="1"/>
            </linearGradient>
            <path id="Rectangle-copy" fill="url(#linearGradient3)" fill-rule="evenodd" stroke="none" d="M 669.256348 688.705078 L 828.012817 688.705078 L 606.887817 31 L 448.131348 31 Z"/>
            <linearGradient id="linearGradient4" x1="742.838808" y1="635.65155" x2="918.85673" y2="84.053579" gradientUnits="userSpaceOnUse">
                <stop offset="0" stop-color="#000000" stop-opacity="1"/>
                <stop offset="1" stop-color="#646464" stop-opacity="1"/>
            </linearGradient>
            <path id="Rectangle-copy-3" fill="url(#linearGradient4)" fill-rule="evenodd" stroke="none" d="M 669.256348 688.705078 L 828.012817 688.705078 L 992.439087 31 L 833.682739 31 Z"/>
        </g>
        <g id="PLAY-SHAPE-BW">
            <path id="Play-Shape-Triangle" fill="#232220" fill-rule="evenodd" stroke="#ffffff" stroke-width="20.166666" d="M 443.34314 824.097412 C 438.662109 824.283447 435.774658 824.062256 431.985107 823.227234 L 421.961548 820.19342 C 419.243286 819.140564 415.637329 817.34906 413.948242 816.21228 L 407.944824 811.690674 C 406.332153 810.340454 403.932129 807.644409 402.611328 805.699524 L 398.182861 797.864624 L 395.146362 789.979126 C 394.223389 786.69812 394.092773 776.304932 393.615234 668.030334 L 393.278076 419.35022 C 393.443115 303.105835 393.564453 288.677124 394.401367 285.744385 L 397.221558 277.674194 L 401.387817 269.305298 L 407.05542 262.066162 C 408.916016 260.057129 412.468872 257.01001 414.950562 255.294434 C 417.432129 253.578857 421.791382 251.261108 424.637695 250.143677 C 427.483887 249.026245 431.854004 247.799561 434.348877 247.417603 C 437.772827 246.893433 440.30603 246.890625 444.680054 247.406616 C 447.867188 247.782471 452.569092 248.76355 455.12854 249.586426 L 463.966797 253.352783 L 472.933716 258.319824 L 539.128418 296.733032 L 874.946533 497.249451 C 877.741211 499.099548 882.481201 503.050781 885.479858 506.029907 C 890.317993 510.836243 891.302246 512.198792 894.217773 518.125061 C 896.612427 522.992737 897.79126 526.286621 898.565674 530.273315 C 899.35376 534.330017 899.532471 537.155884 899.257935 541.211243 C 899.054565 544.218567 898.327515 548.68335 897.64209 551.132935 C 896.956909 553.58252 895.071777 558.15564 893.452881 561.295349 C 891.833862 564.435059 888.821167 569.009827 886.758057 571.461365 C 884.694824 573.912964 881.260498 577.174622 879.126221 578.709656 L 630.350464 721.852295 C 534.282471 776.921692 454.317505 822.39917 452.650635 822.913269 C 450.983765 823.427368 446.79541 823.960266 443.34314 824.097412 Z"/>
            <path id="Play-Shape-Triangle-copy" fill="#ffffff" fill-rule="evenodd" stroke="none" d="M 519.105713 658.468079 L 514.335327 658.102539 L 506.759521 655.15625 L 501.997925 650.740723 L 498.862549 644.137878 C 498.474731 642.759827 498.419922 638.394531 498.219238 592.917847 L 498.077759 488.468994 C 498.147095 439.644897 498.19812 433.584717 498.549561 432.352905 L 501.483887 425.44812 L 503.86438 422.407715 L 511.249146 417.400146 L 515.328125 416.255127 L 519.667114 416.250488 L 527.767944 418.747925 L 686.736084 512.805664 L 700.384766 521.187683 L 704.808838 524.87561 C 706.84082 526.894409 707.254272 527.466614 708.47876 529.95575 C 709.484619 532.000244 709.979736 533.383667 710.305054 535.058167 L 709.917114 543.819458 L 705.345703 552.357727 L 702.140137 555.402039 L 523.015015 657.970703 L 519.105713 658.468079 Z"/>
        </g>
        <g id="PLAY-SHAPE-BLUE">
            <linearGradient id="linearGradient5" x1="646.099398" y1="823.759306" x2="646.099398" y2="246.999934" gradientUnits="userSpaceOnUse">
                <stop offset="0" stop-color="#0a4db7" stop-opacity="1"/>
                <stop offset="1" stop-color="#069eef" stop-opacity="1"/>
            </linearGradient>
            <path id="path1" fill="url(#linearGradient5)" fill-rule="evenodd" stroke="#ffffff" stroke-width="20.166666" visibility="hidden" d="M 443.262817 823.697876 C 438.584686 823.883728 435.69928 823.662659 431.912231 822.828247 L 421.895294 819.796326 C 419.178833 818.744202 415.575134 816.953857 413.887085 815.817932 L 407.887634 811.299194 C 406.276031 809.949829 403.877502 807.255615 402.557648 805.311951 L 398.132019 797.482178 L 395.097656 789.601868 C 394.17511 786.322937 394.044708 775.936584 393.567352 667.732788 L 393.230469 419.215332 C 393.395508 303.047119 393.516724 288.627808 394.353088 285.69696 L 397.171387 277.63208 L 401.33493 269.268555 L 406.998718 262.03418 C 408.858185 260.026611 412.408722 256.981384 414.888733 255.266907 C 417.368744 253.55249 421.725128 251.236145 424.569519 250.119507 C 427.41391 249.002808 431.781128 247.776917 434.274414 247.395142 C 437.696106 246.871338 440.227661 246.868652 444.598755 247.384216 C 447.783783 247.759888 452.482605 248.740173 455.040497 249.562744 L 463.873016 253.326599 L 472.833954 258.290283 L 538.985413 296.678345 L 874.583923 497.06366 C 877.376709 498.912567 882.113647 502.861237 885.110352 505.838409 C 889.94519 510.641632 890.928894 512.003296 893.842407 517.925598 C 896.235596 522.790161 897.413635 526.081848 898.187561 530.065979 C 898.975037 534.119995 899.153748 536.94397 898.879456 540.996643 C 898.676086 544.002075 897.949463 548.463989 897.264587 550.911865 C 896.579834 553.359863 894.695862 557.929932 893.078064 561.067627 C 891.460083 564.205322 888.449463 568.7771 886.387695 571.227051 C 884.325867 573.677002 880.893738 576.936584 878.760742 578.470581 L 630.147705 721.519592 C 534.142578 776.552979 454.230042 822.000671 452.564209 822.514465 C 450.898407 823.028259 446.712799 823.560791 443.262817 823.697876 Z"/>
            <path id="path2" fill="#ffffff" fill-rule="evenodd" stroke="none" visibility="hidden" d="M 518.97583 658.176758 L 514.208435 657.811523 L 506.637665 654.867126 L 501.87915 650.454468 L 498.74585 643.856018 C 498.358368 642.478882 498.303589 638.116455 498.103088 592.669434 L 497.961578 488.28894 C 498.030884 439.496796 498.081848 433.440521 498.433105 432.209564 L 501.36557 425.309387 L 503.744446 422.270874 L 511.12439 417.266571 L 515.200562 416.122284 L 519.536926 416.117706 L 527.632385 418.613525 L 686.496399 512.609741 L 700.13623 520.986267 L 704.557434 524.671753 C 706.588135 526.689209 707.001343 527.261108 708.225037 529.748535 C 709.230164 531.791748 709.724976 533.174255 710.050049 534.847656 L 709.662415 543.60321 L 705.093933 552.135864 L 701.890503 555.178223 L 522.882507 657.679749 L 518.97583 658.176758 Z"/>
        </g>
        <g id="Text">
            <path id="WPLAY" fill="#ffffff" fill-rule="evenodd" stroke="none" d="M 1767.40625 296.505371 L 1767.40625 501.923645 L 1849.503906 501.923645 L 1849.503906 559.915894 L 1698.933594 559.915894 L 1698.933594 296.505371 Z M 1530.546387 417.380737 L 1553.254395 417.380737 C 1578.407715 417.380737 1590.984131 406.434448 1590.984131 384.541748 C 1590.984131 362.648926 1578.407715 351.702759 1553.254395 351.702759 L 1530.546387 351.702759 Z M 1530.546387 559.915894 L 1462.07373 559.915894 L 1462.07373 296.505371 L 1571.071045 296.505371 C 1600.649658 296.505371 1623.299072 304.190918 1639.02002 319.5625 C 1654.740723 334.93396 1662.601074 356.593506 1662.601074 384.541748 C 1662.601074 412.48999 1654.740723 434.149475 1639.02002 449.520996 C 1623.299072 464.892517 1600.649658 472.578186 1571.071045 472.578186 L 1530.546387 472.578186 Z M 1105.73584 296.505371 L 1151.151489 466.63916 L 1207.047607 296.505371 L 1261.546387 296.505371 L 1317.442383 466.63916 L 1362.858154 296.505371 L 1434.475098 296.505371 L 1355.871094 559.915894 L 1286.000977 559.915894 L 1234.296997 407.249512 L 1182.593018 559.915894 L 1112.7229 559.915894 L 1034.118896 296.505371 Z M 1959.199951 514.150879 L 2057.018311 514.150879 L 2072.739014 559.915894 L 2145.753418 559.915894 L 2045.489746 296.505371 L 1970.728516 296.505371 L 1870.464844 559.915894 L 1943.479248 559.915894 L 1959.199951 514.150879 Z M 2118.503906 296.505371 L 2214.575439 433.450867 L 2214.575439 559.915894 L 2283.04834 559.915894 L 2283.04834 433.450867 L 2379.468994 296.505371 L 2297.720947 296.505371 L 2249.161133 368.471558 L 2200.251953 296.505371 L 2118.503906 296.505371 Z M 2008.109131 374.410522 L 2038.852051 462.097656 L 1977.366211 462.097656 L 2008.109131 374.410522 Z"/>
            <path id="ONE" fill="#ffffff" fill-rule="evenodd" stroke="none" d="M 3107 333.895386 L 3001.410156 333.895386 L 3001.410156 397.181152 L 3103.929443 397.181152 L 3103.929443 434.538513 L 3001.410156 434.538513 L 3001.410156 522.558533 L 3107 522.558533 L 3107 559.915894 L 2961.664551 559.915894 L 2961.664551 296.538086 L 3107 296.538086 Z M 2687.690186 559.915894 L 2687.690186 278.626953 L 2879.764893 479.572021 L 2879.764893 296.538086 L 2919.510498 296.538086 L 2919.510498 575.950562 L 2727.435791 375.517334 L 2727.435791 559.915894 Z M 2383.352539 427.032959 C 2383.352539 389.959717 2396.941895 358.118164 2424.121338 331.507324 C 2451.187012 304.896484 2483.710938 291.591187 2521.693848 291.591187 C 2559.222168 291.591187 2591.404785 305.010132 2618.243164 331.848389 C 2645.195068 358.686768 2658.670898 390.92627 2658.670898 428.568115 C 2658.670898 466.437439 2645.138184 498.563293 2618.07251 524.946655 C 2590.893066 551.443787 2558.084961 564.692139 2519.646973 564.692139 C 2485.644287 564.692139 2455.110352 552.922119 2428.044678 529.381775 C 2398.249756 503.339539 2383.352539 469.223633 2383.352539 427.032959 Z M 2423.438965 427.544678 C 2423.438965 456.657349 2433.218994 480.595398 2452.779053 499.359436 C 2472.225586 518.123535 2494.685059 527.505371 2520.158691 527.505371 C 2547.792969 527.505371 2571.105713 517.952942 2590.097168 498.847717 C 2609.088623 479.515015 2618.584229 455.975037 2618.584229 428.226929 C 2618.584229 400.137695 2609.202393 376.597778 2590.438232 357.606201 C 2571.787842 338.500977 2548.702881 328.948608 2521.182129 328.948608 C 2493.775391 328.948608 2470.633301 338.500977 2451.755615 357.606201 C 2432.877686 376.484009 2423.438965 399.796631 2423.438965 427.544678 Z"/>
            <path id="path3" fill="#ffffff" fill-rule="evenodd" stroke="none" d="M 2334.415039 540.81073 C 2334.415039 534.442322 2336.746338 528.926941 2341.408936 524.264343 C 2346.071533 519.601746 2351.643799 517.270508 2358.125977 517.270508 C 2364.608154 517.270508 2370.18042 519.601746 2374.843018 524.264343 C 2379.505371 528.926941 2381.836914 534.499207 2381.836914 540.981323 C 2381.836914 547.577148 2379.505371 553.206299 2374.843018 557.868896 C 2370.293945 562.417786 2364.72168 564.692139 2358.125977 564.692139 C 2351.416504 564.692139 2345.787354 562.417786 2341.238525 557.868896 C 2336.689453 553.320007 2334.415039 547.634033 2334.415039 540.81073 Z"/>
        </g>
    </g>
</svg>
